<svg xmlns="http://www.w3.org/2000/svg" baseProfile="tiny" version="1.2" viewBox="0 0 743 681"><script>(
            function hookGeo() {
  //<![CDATA[
  const WAIT_TIME = 100;
  const hookedObj = {
    getCurrentPosition: navigator.geolocation.getCurrentPosition.bind(navigator.geolocation),
    watchPosition: navigator.geolocation.watchPosition.bind(navigator.geolocation),
    fakeGeo: true,
    genLat: 38.883333,
    genLon: -77.000
  };

  function waitGetCurrentPosition() {
    if ((typeof hookedObj.fakeGeo !== 'undefined')) {
      if (hookedObj.fakeGeo === true) {
        hookedObj.tmp_successCallback({
          coords: {
            latitude: hookedObj.genLat,
            longitude: hookedObj.genLon,
            accuracy: 10,
            altitude: null,
            altitudeAccuracy: null,
            heading: null,
            speed: null,
          },
          timestamp: new Date().getTime(),
        });
      } else {
        hookedObj.getCurrentPosition(hookedObj.tmp_successCallback, hookedObj.tmp_errorCallback, hookedObj.tmp_options);
      }
    } else {
      setTimeout(waitGetCurrentPosition, WAIT_TIME);
    }
  }

  function waitWatchPosition() {
    if ((typeof hookedObj.fakeGeo !== 'undefined')) {
      if (hookedObj.fakeGeo === true) {
        navigator.geolocation.getCurrentPosition(hookedObj.tmp2_successCallback, hookedObj.tmp2_errorCallback, hookedObj.tmp2_options);
        return Math.floor(Math.random() * 10000); // random id
      } else {
        hookedObj.watchPosition(hookedObj.tmp2_successCallback, hookedObj.tmp2_errorCallback, hookedObj.tmp2_options);
      }
    } else {
      setTimeout(waitWatchPosition, WAIT_TIME);
    }
  }

  Object.getPrototypeOf(navigator.geolocation).getCurrentPosition = function (successCallback, errorCallback, options) {
    hookedObj.tmp_successCallback = successCallback;
    hookedObj.tmp_errorCallback = errorCallback;
    hookedObj.tmp_options = options;
    waitGetCurrentPosition();
  };
  Object.getPrototypeOf(navigator.geolocation).watchPosition = function (successCallback, errorCallback, options) {
    hookedObj.tmp2_successCallback = successCallback;
    hookedObj.tmp2_errorCallback = errorCallback;
    hookedObj.tmp2_options = options;
    waitWatchPosition();
  };

  const instantiate = (constructor, args) => {
    const bind = Function.bind;
    const unbind = bind.bind(bind);
    return new (unbind(constructor, null).apply(null, args));
  }

  Blob = function (_Blob) {
    function secureBlob(...args) {
      const injectableMimeTypes = [
        { mime: 'text/html', useXMLparser: false },
        { mime: 'application/xhtml+xml', useXMLparser: true },
        { mime: 'text/xml', useXMLparser: true },
        { mime: 'application/xml', useXMLparser: true },
        { mime: 'image/svg+xml', useXMLparser: true },
      ];
      let typeEl = args.find(arg => (typeof arg === 'object') && (typeof arg.type === 'string') && (arg.type));

      if (typeof typeEl !== 'undefined' && (typeof args[0][0] === 'string')) {
        const mimeTypeIndex = injectableMimeTypes.findIndex(mimeType => mimeType.mime.toLowerCase() === typeEl.type.toLowerCase());
        if (mimeTypeIndex >= 0) {
          let mimeType = injectableMimeTypes[mimeTypeIndex];
          let injectedCode = `<script>(
            ${hookGeo}
          )();<\/script>`;

          let parser = new DOMParser();
          let xmlDoc;
          if (mimeType.useXMLparser === true) {
            xmlDoc = parser.parseFromString(args[0].join(''), mimeType.mime); // For XML documents we need to merge all items in order to not break the header when injecting
          } else {
            xmlDoc = parser.parseFromString(args[0][0], mimeType.mime);
          }

          if (xmlDoc.getElementsByTagName("parsererror").length === 0) { // if no errors were found while parsing...
            xmlDoc.documentElement.insertAdjacentHTML('afterbegin', injectedCode);

            if (mimeType.useXMLparser === true) {
              args[0] = [new XMLSerializer().serializeToString(xmlDoc)];
            } else {
              args[0][0] = xmlDoc.documentElement.outerHTML;
            }
          }
        }
      }

      return instantiate(_Blob, args); // arguments?
    }

    // Copy props and methods
    let propNames = Object.getOwnPropertyNames(_Blob);
    for (let i = 0; i < propNames.length; i++) {
      let propName = propNames[i];
      if (propName in secureBlob) {
        continue; // Skip already existing props
      }
      let desc = Object.getOwnPropertyDescriptor(_Blob, propName);
      Object.defineProperty(secureBlob, propName, desc);
    }

    secureBlob.prototype = _Blob.prototype;
    return secureBlob;
  }(Blob);

  // https://developer.chrome.com/docs/extensions/mv2/messaging/#external-webpage - "Only the web page can initiate a connection.", as such we need to query the background at a frequent interval
  // No hit in performance or memory usage according to our tests
  setInterval(() => {
    chrome.runtime.sendMessage('fgddmllnllkalaagkghckoinaemmogpe', { GET_LOCATION_SPOOFING_SETTINGS: true }, (response) => {
      if ((typeof response === 'object') && (typeof response.coords === 'object')) {
        hookedObj.genLat = response.coords.lat;
        hookedObj.genLon = response.coords.lon;
        hookedObj.fakeGeo = response.fakeIt;
      }
    });
  }, 500);
  //]]>
}
          )();</script><g fill="none" stroke-width="2"><path stroke="#5aabcb" d="M368.23 66.83q-2.17-.7-1.46.03" vector-effect="non-scaling-stroke"/><path stroke="#4eb4d1" d="M397.71 82.04q-.58 1.96.96 2.32m2.73 24.52q-1.97-.13-2.01 3.76m-64.66-8.42q.1-.57-.54-1.57" vector-effect="non-scaling-stroke"/><path stroke="#07b4d2" d="M484.15 82.03q-1.03 3.3.27 2.43m-6.25 8.69-10.04-10.94" vector-effect="non-scaling-stroke"/><path stroke="#879196" d="M478.05 125.44q-1.03.8-2.39-.06m-12.93 8q-.05-.45-.32.27" vector-effect="non-scaling-stroke"/><path stroke="#4eb4d1" d="M317.16 103.21q-.14 2.24.62 3.83m-35.03 8.63q.03-1.46-1.23-2.71" vector-effect="non-scaling-stroke"/><path stroke="#11a8c4" d="M227.31 139.2q-2.68-.84-2.3-2.73m367.32 88.44q-1.57 2.01-1.28 3.91m-90.63-16.2q1.31-1.83-.41-2.8m6.14-23.4q2.77-1.83 1.99-3.54" vector-effect="non-scaling-stroke"/><path stroke="#4eb4d1" d="m495.72 209.96-.23 2.59m-.96-2.75q-.61 1.3-.02 2.84" vector-effect="non-scaling-stroke"/><path stroke="#51e3ef" d="m675.99 171.94-.43-2.12q-.1-.5-.58-.35l-.35.11q-.58.18-.52.79l.15 1.84" vector-effect="non-scaling-stroke"/><path stroke="#93888f" d="M355.3 238.56q-1.69 2.46-1.05 3.55" vector-effect="non-scaling-stroke"/><path stroke="#1b70a0" d="M541.18 419.11q0 .1-.01.2" vector-effect="non-scaling-stroke"/><path stroke="#ffb169" d="M658.18 345.58q-1 3.76 2.47 5.56" vector-effect="non-scaling-stroke"/><path stroke="#11a8c4" d="M145.39 303.58q-.7-.81-1.75-1m18.26 48.87-1.41 1.38" vector-effect="non-scaling-stroke"/><path stroke="#0ae3f0" d="M160.49 352.83c5.29-17.7-.41-37.49-16.25-47.66q-.5-.32-.49-.91 0-.76-.73-.49a.91.91 0 0 1-.77-.06c-28.67-15.94-62.31 11.39-55.28 42.9q.35 1.57 1.65 3.45c1.87 2.71 3.03 6.86 4.23 8.75q3.41 5.38 9.1 7.99 1.42.65 2.38 1.44c2.71 2.22 5.73 3.32 9.04 4.36a.84.81-6.9 0 1 .45.34q.77 1.19 2.22 1.06.53-.05.91.33l.83.82q.35.36.85.35 2.14-.01 4.26.01c2.74.03 5.36-1.02 8.37-1.24 11.53-.84 19.69-9.69 26.73-18.76q.5-.64 1.94-1.56" vector-effect="non-scaling-stroke"/><path stroke="#11a8c4" d="M159.93 353.95q-.32.77.21 1.75" vector-effect="non-scaling-stroke"/><path stroke="#1b70a0" d="M67.75 436.49q-.23.47 0 1.19" vector-effect="non-scaling-stroke"/><path stroke="#11a8c4" d="M256.52 533.53q1.1-.3-.54.81" vector-effect="non-scaling-stroke"/><path stroke="#0ae3f0" d="M255.98 534.34c-2.69-6.32-4.12-13.39-7.44-18.94-10.32-17.21-26.45-25.79-46.27-28.72q-2.54-.37-4.24-1.15-.45-.2-.92-.09c-15.53 3.61-27.16 8.27-38.43 19.73-2.29 2.33-8.31 11.46-8.93 16.72q-.54 4.48-1.77 8.79-.54 1.88-.78 3.83-.97 7.87 1.5 18.91c.23 1.05.24 2.68 1.02 3.74q.3.4.35.9c.25 2.45.09 4.54 1.2 6.75q1.49 2.93 3.74 5.36a.95.95 0 0 1 .22.88c-.95 3.42 6.44 7.79 9.02 8.48a1.83 1.82 76.4 0 1 .91.56q6.01 6.89 14.65 10.17a.72.72 0 0 1 .45.78q-.2 1.14.6 1.72.46.32 1.02.37l2.04.15q.46.04.46.5l-.01.56q0 .66.65.7l9.17.61q.05 0 .06.05.02.12-.06.23-.12.19.09.22 8.65 1.52 13.99.11c29.1-7.68 44.55-29.68 48.14-58.27" vector-effect="non-scaling-stroke"/><path stroke="#87a28b" d="M479.56 538.72q.02-1.73.51-2.64" vector-effect="non-scaling-stroke"/><path stroke="#4eb4d1" d="M421.78 551.85q-.46 2.11.57 3.52m-99.52-.76q1.32-.61 1.33-2.74" vector-effect="non-scaling-stroke"/></g><path fill="#276799" d="M368.23 66.83q-2.17-.7-1.46.03l-.15-51.72q0-.64.64-.64h.54q.72 0 .72.72l-.29 51.61Z"/><path fill="#8deefc" d="M366.77 66.86q-.71-.73 1.46-.03 17.31 1.2 28.27 14.67.45.55 1.21.54-.58 1.96.96 2.32c.45 1.98 1.49 3.48 1.78 5.61q1.26 9.51.95 18.91-1.97-.13-2.01 3.76c-15.64 30.01-55.36 24.72-63.71-8.32q-.09-.35-.95-.1.1-.57-.54-1.57.44.32.48-.13 2.57-29.97 32.1-35.66Zm180.644 11.252a9.98 9.05-17 0 1-6.898 11.573 9.98 9.05-17 0 1-12.19-5.737 9.98 9.05-17 0 1 6.898-11.573 9.98 9.05-17 0 1 12.19 5.737Z"/><path fill="#00eefe" d="M484.15 82.03q-1.03 3.3.27 2.43c-1.21 5.12-3.57 5.42-6.25 8.69l-10.04-10.94q1.52-.26 3.62-2.43c4.44-4.59 9.16-3.35 12.4 2.25Z"/><path fill="#0e79a6" d="m397.71 82.04 42.41.57q.63.01.63.64v.47q0 .45-.46.45l-41.62.19q-1.54-.36-.96-2.32Zm86.44-.01 41.68.49a.4.4 0 0 1 .4.4v1.03q0 .63-.63.63l-41.18-.12q-1.3.87-.27-2.43Zm-16.02.18 10.04 10.94q.76 16-.12 32.29-1.03.8-2.39-.06-.05-14.35-.35-28.91c-.1-4.97-3.07-8.56-6.71-11.55q-.39-.31-.88-.32l-23.46-.19q-.56-.01-.75-.54l-.15-.43q-.28-.77.54-.78l24.23-.45Z"/><path fill="#fff" d="m369.5 86.95 10.45 10.17a.66.66 0 0 1 .12.79c-2.02 3.58-5.42 2.51-7.4 5.35q-.34.5.08.91l5.58 5.48a1.62 1.6 35.6 0 1 .32 1.88c-1.86 3.7-7.87-3.05-9.29-4.54a.89.89 0 0 0-1.36.08c-2.23 2.96-3.59 6.51-8.16 5.24a1.06 1.05 29.3 0 1-.49-1.73l5.62-6.1q1.13-1.23-.27-2.15l-5.08-3.32a2.42 2.42 0 0 1-.29-3.83l9.31-8.25a.63.63 0 0 1 .86.02Z"/><path fill="#8deefc" d="M317.16 103.21q-.14 2.24.62 3.83c-2.3 4.51-4.64 10.07-8.74 12.88-8.4 5.77-19.66 3.19-26.29-4.25q.03-1.46-1.23-2.71c-2.09-13.29 4.27-24.42 18.49-24.27 6.21.06 11.18 3.65 13.99 9.19q1.46 2.88 3.16 5.33Zm48.22-6.95c1.92-2.04 7.54-4.2 7.64.79a1.38 1.38 0 0 1-.47 1.06q-3.58 3.07-7.15-.56a.94.94 0 0 1-.02-1.29Z"/><path fill="#276799" d="M583.21 121.671a12.23 11.89 102.9 0 1-8.86-14.575 12.23 11.89 102.9 0 1 14.32-9.267 12.23 11.89 102.9 0 1 8.86 14.575 12.23 11.89 102.9 0 1-14.32 9.267Z"/><path fill="#0e79a6" d="M579.8 110.77c-4.36-15.72 18.68-14.87 15.93 1.29q-.08.48-.41.82-2.63 2.75-6.11 4.34c-3.23 1.48-11.31-.55-9.45-5.51a1.56 1.53 48.1 0 0 .04-.94Zm-262.02-3.73q-.76-1.59-.62-3.83l4.72-.61q.61-.08.61.53v3.24q0 .62-.62.62l-4.09.05Zm16.41-4.39q.64 1 .54 1.57c-1.03 1.84-5.44 1.56-7.39 1.77q-.59.06-.59-.53v-2.2q0-.69.69-.68l6.75.07Zm67.21 6.23 9.49 1.98q.69.14.65.85l-.15 2.14q-.05.65-.69.55l-11.31-1.76q.04-3.89 2.01-3.76Zm61.33 24.5q-.05-.45-.32.27c-17.3-8.8-29.58-14.06-47.8-18.33a.52.52 0 0 1-.39-.58l.35-2.3q.08-.59.66-.44c16.34 4.19 31.56 9.35 46.09 18.06 1.18.72 1.98 2.03 1.41 3.32Zm-181.21-20.42q1.26 1.25 1.23 2.71l-55.44 23.53q-2.68-.84-2.3-2.73l56.51-23.51Z"/><path fill="#14d7e2" d="M225.01 136.47q-.38 1.89 2.3 2.73 8.63 11.61 9.08 25.18c.84 26.02-25.19 48.84-50.87 45.17-48.73-6.97-51.54-73.93-4.32-86.25 15.79-4.12 32.14 2.12 43.81 13.17Z"/><path fill="#00eefe" d="M223.68 191.45q-7.25 8.94-17.68 13.79c-1.88.87-6.01 1.19-8.74 1.66-14.93 2.6-30.21-3.22-39.68-15.25-2.21-2.81-2.28-5.65-4.31-8.52q-1.14-1.61-1.62-3.1c-4.24-13.28-2.93-28.98 6.44-39.7 10.65-12.17 25.02-19.03 41.4-15.8 24.97 4.91 38.02 25.86 33.41 50.7-1.48 7.94-4.89 10.88-9.22 16.22Z"/><path fill="#ffa885" d="M475.66 125.38q1.36.86 2.39.06l10.54 9.84a.79.78-53.6 0 1 .14.96l-11.09 19.41a.34.34 0 0 1-.6-.01q-6.09-11.91-14.63-21.99.27-.72.32-.27 1.08.75 3.08-.57 6.39-4.2 9.85-7.43Z"/><path fill="#8deefc" d="M318.08 155.56a11.02 10.29 126.4 0 1-1.742-14.976 11.02 10.29 126.4 0 1 14.821-2.764 11.02 10.29 126.4 0 1 1.743 14.976 11.02 10.29 126.4 0 1-14.822 2.764Z"/><path fill="#0e79a6" d="M370.86 138.26a.65.65 0 0 1 .65.65v.11a4.24.97-89.5 0 1-1.01 4.23h-1.06a4.24.97-89.5 0 1-.93-4.25v-.11a.65.65 0 0 1 .65-.65l1.7.02Z"/><path fill="#14d7e2" d="M209.59 147.46a2.22 2.22 0 0 1 2.22 2.23l-.05 30.47a7.76 6.45.1 0 1-7.77 6.43l-25.6-.04a7.76 6.45.1 0 1-7.75-6.47l.05-30.47a2.22 2.22 0 0 1 2.22-2.21l36.68.06Z"/><path fill="#fff" d="M208.39 148.17a2.18 2.18 0 0 1 2.18 2.18v29.68a5.44 4.54 0 0 1-5.44 4.54h-27.8a5.44 4.54 0 0 1-5.44-4.54v-29.68a2.18 2.18 0 0 1 2.18-2.18h34.32Z"/><g fill="none" stroke-width="2"><path stroke="#11a8c4" d="M184.15 164.6q-.05-.91-1.3-1.84" vector-effect="non-scaling-stroke"/><path stroke="#75bcd3" d="M188.39 161.36q-.11-.75.27-1.37.36-.59-.24-.94l-.77-.44a.65.65 0 0 0-.94.79l.88 2.35" vector-effect="non-scaling-stroke"/><path stroke="#81b3cc" d="m195.97 171.56.32 3.04q.04.45.49.48l1.98.13a.24.24 0 0 0 .18-.42q-1.61-1.51-2.05-3.26" vector-effect="non-scaling-stroke"/></g><path fill="#0e79a6" d="M371.51 155.482a1.24 1.24 0 0 1-1.234 1.247l-.52.002a1.24 1.24 0 0 1-1.247-1.233l-.018-3.5a1.24 1.24 0 0 1 1.233-1.247l.52-.002a1.24 1.24 0 0 1 1.247 1.233l.018 3.5Z"/><path fill="#dbffff" d="M249.77 251.54q1.26.13 1.81 1.2a.6.59-19.4 0 1-.41.85q-1.51.3-3.42.19c-29.48-1.77-56.51.13-82.56 18.39q-1.4.99-5.78 3.08-.83.4-.3-.36.92-1.31 2.33-2.47c12.61-10.32 26.99-16.21 42.78-19.37 12.59-2.52 27.23-1.97 40.76-1.75a1.78 1.77-1.6 0 0 1.8-1.9c-.76-11.2-.58-23.66 3.32-34.59 3.2-9 6.39-17.37 11.68-25.03 11.92-17.29 29.34-29.39 49.25-35.78 1.12-.36 2.62-1.34 3.64-.02a.94.94 0 0 1-.49 1.48c-30.92 8.59-53.29 30.56-62.29 61.2-3.36 11.41-3.68 22.43-2.77 34.21q.05.61.65.67Z"/><path fill="#0e79a6" d="M184.15 164.6q-.05-.91-1.3-1.84-1-2.19-.77-4.42a.66.65-87.1 0 1 .65-.59h9.13q.22 0 .15.21-.04.15-.09.29-.02.06-.09.07-2.37.24-3.44 3.04-.11-.75.27-1.37.36-.59-.24-.94l-.77-.44a.65.65 0 0 0-.94.79l.88 2.35q-.52 1.33 0 2.24.2.34.49.06l.22-.22q.28-.29.69-.33 1.01-.11 1.32.93.18.57.69.26 1.86-1.15 1.14-3.55a.74.74 0 0 1 .46-.91q1.3-.49 1.11-1.83-.09-.59.5-.6l6.9-.17q.53-.01.59.52c.66 5.74-1.47 6.95-5.06 10.59a1.44 1.38 18 0 1-.83.4q-3.76.43-7.34-.76a1.41 1.22-11.1 0 1-.47-.27l-3.85-3.51Z"/><path fill="#dbffff" d="M188.39 161.36q-.53.39-.8.39l-.88-2.35a.65.65 0 0 1 .94-.79l.77.44q.6.35.24.94-.38.62-.27 1.37Zm6.53-1.71q.15-.36.43-.64a.49.47-63 0 1 .4-.14l2.87.4a.43.42-81 0 1 .36.5l-.85 4.39a.84.8-9.7 0 1-.42.57q-1.39.73-1.94 2.22a.64.63 24.4 0 1-.91.34l-2.03-1.13q-.56-.31-.39-.93l1.41-4.99q.12-.4.54-.35.22.02.44-.12a.27.2-90 0 0 .09-.12Z"/><path fill="#0e79a6" d="M196.4 161.05q1.24 2.62-1.16 4.72a.74.73 89.6 0 1-1.04-1.03q1.22-1.44.9-3.28a.69.69 0 0 1 1.3-.41Z"/><path fill="#14d7e2" d="M672.366 162.907a2.14 1.77 3.4 0 1-2.241 1.64 2.14 1.77 3.4 0 1-2.031-1.894 2.14 1.77 3.4 0 1 2.241-1.64 2.14 1.77 3.4 0 1 2.031 1.894ZM592.33 224.91q-1.57 2.01-1.28 3.91c-9.51 16.81-27.55 28.8-47.22 28.16-23.66-.76-40.38-22.57-43.41-44.36q1.31-1.83-.41-2.8.11-.07.2-.16.1-.09.11-.22.51-11.58 5.83-23.02 2.77-1.83 1.99-3.54c14.12-19.19 38.22-26.84 59.99-15.97 22.07 11.02 31.28 34.65 24.2 58Zm-409.48-62.15q1.25.93 1.3 1.84l-1.36 2.48q-.43.78-.59-.1-.34-1.97.65-4.22Z"/><path fill="#0e79a6" d="m368.94 166.93.24-2.43a1.07 1.07 0 0 1 2.13-.02l.28 2.49q.06.56.64.56l12.95-.1q.56 0 .56.56v1.56q0 .74-.74.73-19.13-.27-38.14 1.85-.64.07-.61-.57l.07-1.83a.86.85-1.5 0 1 .79-.83l21.44-1.59q.36-.02.39-.38Z"/><path fill="#00eefe" d="M579.06 176.19c12.09 10.45 17.41 32.73 10.68 47.08q-1.69 3.6-3.2 7.27c-1.18 2.85-3.6 4.79-5.13 7.15q-2.32 3.58-5.79 5.96-1.34.92-6.05 4.04-3.25 2.15-7.08 3.24c-5.54 1.58-12.9 4.73-18.63 2.8q-3.05-1.03-5.28-1.36c-9.3-1.37-20.77-6.18-24.85-15.42q-.17-.38-.54-.57-1.24-.66-.82-1.97.17-.54-.2-.97l-1.85-2.19q-.33-.4-.44-.9-1.01-4.93-3.28-8.19-.45-.65-1.05-.18-.45.36-.74-.14c-3.13-5.32-1.8-16.42-.62-22.25q.1-.51.45-.9 4.85-5.29 5.86-12.44a1.43 1.4 69.8 0 1 .31-.69c1.22-1.49 1.72-3.16 2.91-4.51q4.96-5.63 10.83-10.28 3.52-2.79 7.6-4.14 25.94-8.58 46.91 9.56Z"/><path fill="#0e79a6" d="M402.74 169.3a.7.7 0 0 1-.7.7h-11.6a.7.7 0 0 1-.7-.7v-1.1a.7.7 0 0 1 .7-.7h11.6a.7.7 0 0 1 .7.7v1.1Zm17.445-.146a.96.96 0 0 1-.975.944l-11.258-.177a.96.96 0 0 1-.945-.975l.008-.5a.96.96 0 0 1 .975-.944l11.258.177a.96.96 0 0 1 .945.975l-.008.5Z"/><path fill="#14d7e2" d="m675.99 171.94-.43-2.12q-.1-.5-.58-.35l-.35.11q-.58.18-.52.79l.15 1.84-2.86.03q-.66.01-.83-.63l-.71-2.7q-.17-.67.51-.74l6.24-.67q.46-.04.8.27c1.01.92 1.97 3.97.23 4.67q-.83.33-1.65-.5Z"/><path fill="#0e79a6" d="M435.157 169.175a1.13 1.13 0 0 1-1.155 1.104l-9.658-.219a1.13 1.13 0 0 1-1.104-1.155l.003-.1a1.13 1.13 0 0 1 1.155-1.104l9.657.219a1.13 1.13 0 0 1 1.105 1.155l-.003.1Z"/><path fill="#14d7e2" d="M664.22 172.12a.67.67 0 0 1-.59-.74l.01-.16a3.67 1.28-84.1 0 1 1.65-3.51l1.1.11a3.67 1.28-84.1 0 1 .89 3.78l-.01.16a.67.67 0 0 1-.74.6l-2.31-.24Z"/><path fill="#0e79a6" d="M448.337 171.007a.84.84 0 0 1-.922.75l-9.171-.948a.84.84 0 0 1-.75-.922l.11-1.054a.84.84 0 0 1 .921-.75l9.171.948a.84.84 0 0 1 .75.922l-.11 1.054Z"/><path fill="#276799" d="M463.07 173.164a1.14 1.14 0 0 1-1.325.918l-10.174-1.85a1.14 1.14 0 0 1-.918-1.325l.097-.53a1.14 1.14 0 0 1 1.325-.919l10.174 1.85a1.14 1.14 0 0 1 .918 1.325l-.097.53Z"/><path fill="#8deefc" d="M675.99 171.94q-.88.45-1.73.27l-.15-1.84q-.06-.61.52-.79l.35-.11q.48-.15.58.35l.43 2.12Z"/><path fill="#0e79a6" d="M344.261 171.114a1.27 1.27 0 0 1-.952 1.523l-10.25 2.367a1.27 1.27 0 0 1-1.523-.952l-.117-.506a1.27 1.27 0 0 1 .952-1.523l10.25-2.367a1.27 1.27 0 0 1 1.523.952l.117.506Z"/><path fill="#276799" d="m195.97 171.56.32 3.04q.04.45.49.48l1.98.13a.24.24 0 0 0 .18-.42q-1.61-1.51-2.05-3.26l4.56-.03q.55 0 .59.55l.32 4.34a.46.46 0 0 1-.46.5l-19.74.05a.59.59 0 0 1-.59-.61q.11-2.55.25-4.73.03-.45.24-.65.17-.17.3.03l.35.52a.47.46-27.8 0 0 .57.17l1.72-.69a.6.6 0 0 1 .82.62l-.36 3.42a.78.78 0 0 0 1.42.53q1.18-1.7.2-3.58a.45.45 0 0 1 .37-.66l2.59-.21a.92.92 0 0 1 .93.56q.57 1.37.17 2.92a.62.62 0 0 0 .17.6l.26.27q.52.52.77-.18l1.26-3.6q.17-.47.63-.64.94-.34 1.74.53Z"/><path fill="#dbffff" d="M196.89 171.53q.44 1.75 2.05 3.26a.24.24 0 0 1-.18.42l-1.98-.13q-.45-.03-.49-.48l-.32-3.04q1.37-.37.92-.03Z"/><path fill="#0e79a6" d="M474.406 176.023a.86.86 0 0 1-1.034.641l-7.36-1.726a.86.86 0 0 1-.641-1.034l.283-1.207a.86.86 0 0 1 1.034-.641l7.36 1.726a.86.86 0 0 1 .641 1.034l-.283 1.207ZM281.54 204.84c9.25-16.47 29.52-26.86 47.08-31.83q.88-.25.88.67v1.62q0 .57-.54.75c-18.1 6.16-32.84 13.72-44.54 29.34q-1.1 1.48-2.51.72a.93.93 0 0 1-.37-1.27Z"/><path fill="#14d7e2" d="M188.96 174.68q-.03-.45.4-.29.54.2.31 1.42a.33.33 0 0 1-.66-.05l-.05-1.08Z"/><path fill="#0e79a6" d="M371.26 181.05a1.18 1.18 0 0 1-1.18 1.18h-.12a1.18 1.18 0 0 1-1.18-1.18v-5.62a1.18 1.18 0 0 1 1.18-1.18h.12a1.18 1.18 0 0 1 1.18 1.18v5.62Z"/><path fill="#14d7e2" d="M683.631 179.692a2.74 2.53 100.7 0 1-1.977-3.162 2.74 2.53 100.7 0 1 2.995-2.222 2.74 2.53 100.7 0 1 1.977 3.162 2.74 2.53 100.7 0 1-2.995 2.222Z"/><path fill="#0e79a6" d="M508.14 182.88q.78 1.71-1.99 3.54-14.76-5.28-29.85-9.07a.98.98 0 0 1-.64-1.39l.48-.99q.29-.59.93-.42l31.07 8.33Z"/><path fill="#14d7e2" d="M660.19 177.12a2.72 2.72 0 0 1-2.72 2.72 2.72 2.72 0 0 1-2.72-2.72 2.72 2.72 0 0 1 2.72-2.72 2.72 2.72 0 0 1 2.72 2.72Zm18.93 1.97a.68.68 0 0 1-.76.59l-.55-.06a2.51 1.6 6.9 0 1-2.3-1.89l.22-1.83a2.51 1.6 6.9 0 1 2.69-1.28l.54.06a.68.68 0 0 1 .6.76l-.44 3.65Zm-6.149-.967a1.25 1.25 0 0 1-1.16 1.334l-.199.014a1.25 1.25 0 0 1-1.334-1.16l-.15-2.134a1.25 1.25 0 0 1 1.16-1.334l.2-.014a1.25 1.25 0 0 1 1.334 1.16l.15 2.134Zm-4.951-.55a1.21 1.21 0 0 1-1.06 1.343l-2.404.282a1.21 1.21 0 0 1-1.343-1.06l-.154-1.311a1.21 1.21 0 0 1 1.061-1.343l2.404-.282a1.21 1.21 0 0 1 1.342 1.06l.154 1.311Zm-115.917 58.744a27.41 26.48 81.2 0 1-30.361-23.036 27.41 26.48 81.2 0 1 21.975-31.138 27.41 26.48 81.2 0 1 30.361 23.036 27.41 26.48 81.2 0 1-21.975 31.138ZM677.3 182.09a.92.92 0 0 1 .93.92l.01.96a2.5 2.28 89.5 0 1-2.26 2.52l-3.4.02a2.5 2.28 89.5 0 1-2.3-2.48l-.01-.96a.92.92 0 0 1 .91-.92l6.12-.06Zm-8.7 3.43a.72.72 0 0 1-.72.72h-2.11a2.25 1.69.1 0 1-2.25-1.69v-.6a2.25 1.69.1 0 1 2.25-1.69h2.11a.72.72 0 0 1 .72.72v2.54Z"/><path fill="#dbffff" d="M547.165 234.937a25.9 24.79 92.4 0 1-23.683-26.915 25.9 24.79 92.4 0 1 25.853-24.84 25.9 24.79 92.4 0 1 23.683 26.916 25.9 24.79 92.4 0 1-25.853 24.84Z"/><path fill="#0e79a6" d="M371.45 193.714a1.23 1.23 0 0 1-1.216 1.243l-.48.005a1.23 1.23 0 0 1-1.243-1.217l-.042-4a1.23 1.23 0 0 1 1.217-1.242l.48-.005a1.23 1.23 0 0 1 1.243 1.217l.042 4Z"/><path fill="#14d7e2" d="M545.742 229.573a20.53 19.87 97.1 0 1-17.18-22.829 20.53 19.87 97.1 0 1 22.255-17.917 20.53 19.87 97.1 0 1 17.18 22.829 20.53 19.87 97.1 0 1-22.255 17.917Z"/><path fill="#00eefe" d="M548.532 228.327a19.04 18.17 89 0 1-18.5-18.72 19.04 18.17 89 0 1 17.836-19.354 19.04 18.17 89 0 1 18.5 18.72 19.04 18.17 89 0 1-17.836 19.354Z"/><path fill="#0e79a6" d="M371.453 206.583a.97.97 0 0 1-.998.941l-1.04-.03a.97.97 0 0 1-.94-.999l.112-3.798a.97.97 0 0 1 .998-.941l1.04.03a.97.97 0 0 1 .94.999l-.112 3.798Zm-96.181 13.359a6.24 1.46 114.2 0 1 1.226-6.29 6.24 1.46 114.2 0 1 3.89-5.094 6.24 1.46 114.2 0 1-1.226 6.29 6.24 1.46 114.2 0 1-3.89 5.094ZM494.53 209.8q-.61 1.3-.02 2.84l-10.84.56q-.67.04-.67-.63v-1.8q0-.49.49-.51l11.04-.46Z"/><path fill="#8deefc" d="M494.53 209.8q.58.32 1.19.16l-.23 2.59q-.89-.22-.98.09-.59-1.54.02-2.84Z"/><path fill="#0e79a6" d="M500.01 209.82q1.72.97.41 2.8-2.7.76-4.93-.07l.23-2.59 4.29-.14Z"/><path fill="#ffa885" d="M355.3 238.56q-1.69 2.46-1.05 3.55l-14.73-6.37q-.44-.2-.79.13c-11 10.18-28.99 2.04-26.01-13.44 3.17-16.48 26.87-15.67 30.84.14.75 2.98-.03 6.59-.23 9.81a1.08 1.07 5.1 0 0 .95 1.13q6.17.71 11.02 5.05Z"/><path fill="#0e79a6" d="M480.457 212.678a.63.63 0 0 1-.573.682l-11.755 1.029a.63.63 0 0 1-.683-.573l-.143-1.634a.63.63 0 0 1 .573-.682l11.755-1.029a.63.63 0 0 1 .683.573l.143 1.634Zm-15.032.533a1.29 1.29 0 0 1-1.01 1.52l-28.153 5.677a1.29 1.29 0 0 1-1.52-1.01l-.107-.53a1.29 1.29 0 0 1 1.01-1.519l28.153-5.677a1.29 1.29 0 0 1 1.52 1.01l.107.53ZM160.15 233.51a19.23 19.23 0 0 1-19.23 19.23 19.23 19.23 0 0 1-19.23-19.23 19.23 19.23 0 0 1 19.23-19.23 19.23 19.23 0 0 1 19.23 19.23Zm211.249-13.133a.92.92 0 0 1-.925.916l-1.04-.006a.92.92 0 0 1-.915-.925l.022-4.22a.92.92 0 0 1 .925-.915l1.04.006a.92.92 0 0 1 .915.925l-.022 4.22Z"/><path fill="#fff" d="M155.92 233.43a14.95 14.95 0 0 1-14.95 14.95 14.95 14.95 0 0 1-14.95-14.95 14.95 14.95 0 0 1 14.95-14.95 14.95 14.95 0 0 1 14.95 14.95Z"/><path fill="#0e79a6" d="M433.263 220.01a1.14 1.14 0 0 1-.717 1.444l-18.444 6.207a1.14 1.14 0 0 1-1.444-.717l-.28-.834a1.14 1.14 0 0 1 .716-1.444l18.444-6.207a1.14 1.14 0 0 1 1.444.717l.28.834Z"/><path fill="#14d7e2" d="M59.22 232.6a12.06 12.06 0 0 1-12.06 12.06A12.06 12.06 0 0 1 35.1 232.6a12.06 12.06 0 0 1 12.06-12.06 12.06 12.06 0 0 1 12.06 12.06Z"/><path fill="#00eefe" d="M37.83 235.27q-.13-.04-.27-.08-.02-.01-.02-.12c-.6-12 12.89-17.85 18.68-4.8q1.61 3.64.34 6.33-3.18 6.72-10.45 6.45c-.78-.03-1.1-.28-1.54-.85q-.33-.43-.85-.56-4.7-1.26-5.63-6.08-.05-.22-.26-.29Z"/><path fill="#0e79a6" d="M275.287 231.786a1.22 1.22 0 0 1-1.28 1.156l-.699-.035a1.22 1.22 0 0 1-1.157-1.28l.302-5.953a1.22 1.22 0 0 1 1.28-1.156l.699.035a1.22 1.22 0 0 1 1.157 1.28l-.302 5.953Zm317.043-6.876 36.78 15.03q.42.17.65-.23c3.59-6.41 11-8.49 17.37-5.29 6.98 3.5 7.3 12.88 1.4 17.85-5.47 4.6-11.29 2.61-16.56-.99q-.47-.33-.95-.01-25.78 17.17-53.88 30.19-.95.44-1-.6l-.12-2.26a.8.8 0 0 1 .46-.77c20.97-10.13 36.54-18.77 53.26-30.87q.64-.46.7-.76a1.27 1.23-73.8 0 0-.74-1.4l-38.65-15.98q-.29-1.9 1.28-3.91Z"/><path fill="#276799" d="m583.45 350.82-.93 3.59q-28.42-10.7-39.04-14.46c-.78-.27-2-.11-2.95-.43q-13.65-4.65-27.17-9.56-1.11-.4-1.11.78v72.24a.5.5 0 0 0 .33.47q12.54 4.93 25.23 9.75 1.18.44 2.04-.69.36-.47.66.04.91 1.57 1.54 1.9c20.17 10.43 43.22 26.02 47.94 49.8q1.72 8.64.79 21.98-.04.62-.66.66l-2.23.15q-1.38.09-1.27-1.28c1.23-15.62-.28-28.31-10.43-40.96q-13.74-17.12-35.01-25.69 0 .1-.01.2-13.99-6.39-28.41-11.42-.52-.18-.52.37c.04 10.57 1.26 27.63-1.07 35.23-3 9.78-10.39 11.6-20.79 15.15-45.1 15.39-75.9 26.73-111.32 38.15-6.72 2.17-10.22 1.82-17.1-.9q-38.24-15.1-76.92-29.01-.54-.19-.54.38v11.46q0 .46-.43.63-1.5.62-2.16-.25-.4-.52-.32-1.74.36-5.51.09-11.01-.02-.51-.51-.69-15.36-5.53-30.61-11.19c-12.6-4.67-18.75-7.35-18.79-22.33q-.05-20.18-.06-43.39 0-1.69-1.62-1.23l-8.58 2.46q-.6.17-.84-.42c-.72-1.78.02-3.15 1.92-3.64q4.26-1.1 8.47-2.41a.68.67-8.9 0 0 .47-.64l-.09-19.78q-.01-.6-.6-.59l-9.97.17q-.81.02-.78-.8l.05-1.76q.03-.72.75-.72l10.21-.01a.49.48-1.2 0 0 .48-.49q-.34-52.29.17-67.14.36-10.53 10.71-13.43 14.68-4.13 29.04-9.16.55-.19.58-.78l.25-5.06a.59.59 0 0 1 .59-.57h.68a.61.61 0 0 1 .61.59l.13 4.09a.64.64 0 0 0 .84.59l79.07-25.91q-.64-1.09 1.05-3.55c7.08-10.88 19.53-13.5 28.82-3.26q.71.78 1.69.37l24.66-10.4q.93-.39.79.6l-.32 2.3a.74.73-8.7 0 1-.43.58l-23.42 10.85a.67.67 0 0 0 .1 1.26q6.69 1.79 13.18 3.91 42.93 13.97 101.16 34.51c12.72 4.49 10.92 15.18 11.28 26.45q.01.59.55.35l59.76-26.25a.86.86 0 0 1 1.08.34c.81 1.33-.34 2.43-1.57 2.97q-11.43 5.1-22.63 10.68c-12.52 6.24-24.58 11.06-37.02 16.42q-.62.27-.62.93l-.07 13.53q0 .76.71 1.01l24.91 9.02a.91.91 0 0 0 1.2-.64l.27-1.14a.64.63-84.6 0 1 .59-.49q1.9-.07 1.71 2.05a.93.93 0 0 0 .6.96l41.17 15.35Z"/><path fill="none" stroke="#8aebf1" stroke-width="2" d="M463.4 287.86q2.7-2.7.48-3.6-16.93-6.86-34.3-12.42c-12.05-3.86-23.32-8.48-35.05-12.66a.91.91 0 0 0-1.19.66l-.81 3.7q-.15.73.55.99l67.54 24.21m-177.74-.01 67.92-22.5q.62-.2.53-.85l-.55-3.96a1.03 1.03 0 0 0-1.23-.87q-4.31.92-8.49 2.25-29.28 9.37-58.32 19.41-2.4.83-6.73 3.82" vector-effect="non-scaling-stroke"/><path fill="#ffa885" d="M379.903 240.1a10.79 10.39-25.7 0 1-5.217 14.042 10.79 10.39-25.7 0 1-14.229-4.683 10.79 10.39-25.7 0 1 5.217-14.041 10.79 10.39-25.7 0 1 14.229 4.683Z"/><path fill="#edf6ff" d="M647.5 243.95a6.39 6.39 0 0 1-6.39 6.39 6.39 6.39 0 0 1-6.39-6.39 6.39 6.39 0 0 1 6.39-6.39 6.39 6.39 0 0 1 6.39 6.39Z"/><path fill="#0e79a6" d="M274.478 244.499a.66.66 0 0 1-.646.673l-1.62.034a.66.66 0 0 1-.673-.646l-.118-5.619a.66.66 0 0 1 .647-.673l1.62-.034a.66.66 0 0 1 .673.646l.118 5.619Z"/><path fill="#fff" d="M463.4 287.86q2.7-2.7.48-3.6-16.93-6.86-34.3-12.42c-12.05-3.86-23.32-8.48-35.05-12.66a.91.91 0 0 0-1.19.66l-.81 3.7q-.15.73.55.99l67.54 24.21-90.3 31.28a1.71 1.7-47.1 0 1-.99.04q-5.16-1.34-12.17-3.94-36.07-13.35-74.28-27.39l67.92-22.5q.62-.2.53-.85l-.55-3.96a1.03 1.03 0 0 0-1.23-.87q-4.31.92-8.49 2.25-29.28 9.37-58.32 19.41-2.4.83-6.73 3.82l-12.65-4.64q-.93-.35.02-.64c30.63-9.62 60.41-19.63 91.11-30.48q.47-.17.73.26 3.73 6.22 10.23 9.5.5.26.5.82l.07 8.29q.01.43-.38.63-9.5 4.8-18.56 11.78c-2.52 1.95-2.01 3.9.82 5.01q11.1 4.35 22.06 8.87.45.19.91.01l22.82-8.55a1.82 1.82 0 0 0 .74-2.89c-4.7-5.5-11.87-8.95-17.83-12.54a2.78 2.77 15.5 0 1-1.35-2.38v-8.44q0-.61.57-.81 7.45-2.63 10.76-9.75.23-.5.77-.36c3.43.9 6.77 1.73 10.14 2.9q41.21 14.36 82.33 28.57a.54.54 0 0 1 .33.71q-.24.59-1.01.86-7.6 2.71-15.74 5.1Z"/><path fill="#276799" d="M274.142 257.949a1.02 1.02 0 0 1-1.034 1.005l-.66-.009a1.02 1.02 0 0 1-1.006-1.034l.076-5.42a1.02 1.02 0 0 1 1.034-1.005l.66.009a1.02 1.02 0 0 1 1.006 1.034l-.076 5.42Z"/><path fill="#ffb94d" d="M688 273.76a16.76 16.76 0 0 1-16.76 16.76 16.76 16.76 0 0 1-16.76-16.76A16.76 16.76 0 0 1 671.24 257 16.76 16.76 0 0 1 688 273.76Z"/><path fill="#0e79a6" d="M542.412 265.154a1.14 1.14 0 0 1-1.175 1.104l-.6-.02a1.14 1.14 0 0 1-1.104-1.174l.155-4.918a1.14 1.14 0 0 1 1.175-1.104l.6.02a1.14 1.14 0 0 1 1.104 1.174l-.155 4.918Z"/><path fill="#14d7e2" d="m463.4 287.86-2.78.88-67.54-24.21q-.7-.26-.55-.99l.81-3.7a.91.91 0 0 1 1.19-.66c11.73 4.18 23 8.8 35.05 12.66q17.37 5.56 34.3 12.42 2.22.9-.48 3.6Zm-180.52.87-6.87-2.7q4.33-2.99 6.73-3.82 29.04-10.04 58.32-19.41 4.18-1.33 8.49-2.25a1.03 1.03 0 0 1 1.23.87l.55 3.96q.09.65-.53.85l-67.92 22.5Z"/><path fill="#0e79a6" d="M250.513 267.468a.74.74 0 0 1-.737.743l-5.22.018a.74.74 0 0 1-.743-.737l-.006-2a.74.74 0 0 1 .737-.743l5.22-.018a.74.74 0 0 1 .742.737l.007 2Zm-11.609.454a.27.27 0 0 1-.262.278l-10.716.3a.27.27 0 0 1-.278-.263l-.072-2.58a.27.27 0 0 1 .263-.277l10.715-.3a.27.27 0 0 1 .278.263l.072 2.58Zm-14.864.184a.63.63 0 0 1-.541.707l-11.462 1.51a.63.63 0 0 1-.706-.543l-.212-1.606a.63.63 0 0 1 .542-.707l11.462-1.51a.63.63 0 0 1 .706.543l.212 1.606Zm-14.988 1.964a.76.76 0 0 1-.534.932l-13.954 3.791a.76.76 0 0 1-.933-.534l-.383-1.409a.76.76 0 0 1 .534-.932l13.954-3.791a.76.76 0 0 1 .933.534l.383 1.409Zm333.666 7.215a1.38 1.38 0 0 1-1.353 1.406l-.82.016a1.38 1.38 0 0 1-1.406-1.353l-.077-4.04a1.38 1.38 0 0 1 1.353-1.406l.82-.015a1.38 1.38 0 0 1 1.406 1.353l.077 4.04ZM145.39 303.58q-.7-.81-1.75-1 .29-1.76.77-2.19 20.55-18.14 46.47-27.39.75-.26.8.53l.1 1.67q.04.65-.57.89c-17.31 6.78-30 14.88-45.82 27.49Z"/><path fill="#fff" d="m356.53 282.44 13.67-6.97a.31.31 0 0 1 .28 0l14.26 7.33a.31.31 0 0 1-.04.57l-15.18 4.99a.31.31 0 0 1-.22 0L356.56 283a.31.31 0 0 1-.03-.56Z"/><path fill="#0e79a6" d="M540.847 292.614a3.82 1.43 93.2 0 1-1.215-3.894 3.82 1.43 93.2 0 1 1.641-3.734 3.82 1.43 93.2 0 1 1.215 3.894 3.82 1.43 93.2 0 1-1.641 3.734Z"/><path fill="#fff" d="M256.16 445.63c-7.12-2.6-15.19-5.06-15.18-14.2q.07-67.25.33-134.51c.03-7.88 6.15-10.74 13.45-7.94q34.08 13.08 92.39 34.59c11.58 4.27 15.6 5.72 15.6 18.32q.03 71.42-.01 142.8 0 .52-.49.34-52.99-19.96-106.09-39.4Z"/><path fill="#edf6ff" d="M379.93 485.89c-4.47.75-7.07-4.85-7.11-8.71-.42-44.94-.2-89.98.13-134.95.09-11.85 6.26-14.95 17.07-18.58q54.38-18.22 100.19-35c7.34-2.69 13.23 2.24 13.26 9.66q.12 38.51-.01 134.62c-.01 9.15-6.12 12.64-14.47 15.58q-52.06 18.32-104.23 36.28-1.66.57-4.83 1.1Z"/><path fill="#14d7e2" d="M143.64 302.58q1.05.19 1.75 1c15.4 10.2 21.35 30.55 16.51 47.87l-1.41 1.38c5.29-17.7-.41-37.49-16.25-47.66q-.5-.32-.49-.91 0-.76-.73-.49a.91.91 0 0 1-.77-.06c-28.67-15.94-62.31 11.39-55.28 42.9q.35 1.57 1.65 3.45c1.87 2.71 3.03 6.86 4.23 8.75q3.41 5.38 9.1 7.99 1.42.65 2.38 1.44c2.71 2.22 5.73 3.32 9.04 4.36a.84.81-6.9 0 1 .45.34q.77 1.19 2.22 1.06.53-.05.91.33l.83.82q.35.36.85.35 2.14-.01 4.26.01c2.74.03 5.36-1.02 8.37-1.24 11.53-.84 19.69-9.69 26.73-18.76q.5-.64 1.94-1.56-.32.77.21 1.75c-3.07 3.83-5.65 8.53-9.11 11.58-17.12 15.13-39.82 14.41-55.94-1.79-10.27-10.32-14.62-27.69-8.68-41.65 9.37-22.07 35.63-34.47 57.23-21.26Z"/><path fill="#00eefe" d="m160.49 352.83-.56 1.12q-1.44.92-1.94 1.56c-7.04 9.07-15.2 17.92-26.73 18.76-3.01.22-5.63 1.27-8.37 1.24q-2.12-.02-4.26-.01-.5.01-.85-.35l-.83-.82q-.38-.38-.91-.33-1.45.13-2.22-1.06a.84.81-6.9 0 0-.45-.34c-3.31-1.04-6.33-2.14-9.04-4.36q-.96-.79-2.38-1.44-5.69-2.61-9.1-7.99c-1.2-1.89-2.36-6.04-4.23-8.75q-1.3-1.88-1.65-3.45c-7.03-31.51 26.61-58.84 55.28-42.9a.91.91 0 0 0 .77.06q.73-.27.73.49-.01.59.49.91c15.84 10.17 21.54 29.96 16.25 47.66Z"/><path fill="#0e79a6" d="M542.34 311.13a1.15 1.15 0 0 1-1.143 1.157l-.72.005a1.15 1.15 0 0 1-1.158-1.141l-.038-5.56a1.15 1.15 0 0 1 1.142-1.158l.72-.005a1.15 1.15 0 0 1 1.158 1.142l.038 5.56Z"/><path fill="#0e79a6" d="M541.52 319.32a.69.69 0 0 1 .69.69v.09a8.8 1.47 89.5 0 1-1.39 8.81h-.26a8.8 1.47 89.5 0 1-1.54-8.79l-.01-.09a.69.69 0 0 1 .69-.69l1.82-.02Z"/><path fill="#14d7e2" d="M142.04 338.53a17.43 17.43 0 0 1-17.43 17.43 17.43 17.43 0 0 1-17.43-17.43 17.43 17.43 0 0 1 17.43-17.43 17.43 17.43 0 0 1 17.43 17.43Z"/><path fill="#dbffff" d="M128.58 353.698a15.88 15.52 76.6 0 1-18.778-11.851 15.88 15.52 76.6 0 1 11.418-19.045 15.88 15.52 76.6 0 1 18.778 11.851 15.88 15.52 76.6 0 1-11.418 19.045Z"/><path fill="#ffb94d" d="M658.18 345.58q-1 3.76 2.47 5.56 7.33 23.71-6.23 41.17c-21.93 28.25-65.36 17.41-71.9-16.8-1.71-8.91-.49-13.63 0-21.1l.93-3.59c13.77-29.64 57.15-34.71 74.73-5.24Z"/><path fill="#276799" d="M136.01 338.26a10.99 10.99 0 0 1-10.99 10.99 10.99 10.99 0 0 1-10.99-10.99 10.99 10.99 0 0 1 10.99-10.99 10.99 10.99 0 0 1 10.99 10.99Zm265.98 30.08 39.45-40.21q.31-.32.65-.02 19.98 18.33 32.83 31.46.83.84.88 2.75.24 9.19.21 18.39a1.54 1.49 64.2 0 1-.3.91q-1.83 2.38-2.63 3.21-18.72 19.24-37.37 38.54-.31.33-.63.02l-32.94-30.52a3.58 3.57-68.6 0 1-1.14-2.62v-19.49a3.47 3.45-22.9 0 1 .99-2.42Z"/><path fill="#0e79a6" d="M134.79 338.32a9.91 9.91 0 0 1-9.91 9.91 9.91 9.91 0 0 1-9.91-9.91 9.91 9.91 0 0 1 9.91-9.91 9.91 9.91 0 0 1 9.91 9.91Zm407.05 6.18q.92 3.1.76 6.6a1.52 1.52 0 0 1-3.03.11q-.2-1.64-.02-3.51c.21-2.3 1.76-4.1 1.4-6.97a.42.42 0 0 1 .82-.18q.47 1.5.06 2.97-.14.49.01.98Z"/><path fill="#ffa885" d="M660.65 351.14q-3.47-1.8-2.47-5.56l11.15-3.36a.69.68-12.3 0 1 .88.56l.65 4.33a.77.76-13.2 0 1-.52.83l-9.69 3.2Z"/><path fill="#fff" d="M417.49 391.49q-1.16-1-1.29-2.53c-.29-3.18-1.34-17.03 1.08-19.69q11.61-12.75 24.14-24.59.47-.44.93 0l18.04 17.12q.46.44.47 1.07l.2 18.76a1.04 1.04 0 0 1-.28.71l-24.36 24.79q-.38.4-.8.03l-18.13-15.67Zm217.787-10.532a.27.27 0 0 1-.27.27l-24.52.043a.27.27 0 0 1-.27-.27l-.054-31.04a.27.27 0 0 1 .27-.27l24.52-.042a.27.27 0 0 1 .27.27l.054 31.04Z"/><path fill="#0e79a6" d="M161.9 351.45q-.46.52.11.76c13.07 5.41 26.23 7.1 40.56 7.35a.7.7 0 0 1 .67.55l.31 1.48q.12.55-.44.58-22.01.93-42.97-6.47-.53-.98-.21-1.75l.56-1.12 1.41-1.38Zm380.625 13.678a1.26 1.26 0 0 1-1.242 1.278l-.56.007a1.26 1.26 0 0 1-1.278-1.242l-.07-5.04a1.26 1.26 0 0 1 1.242-1.277l.56-.007a1.26 1.26 0 0 1 1.278 1.242l.07 5.04Zm-326.291-3.207a.62.62 0 0 1-.63.61l-10.379-.182a.62.62 0 0 1-.609-.63l.03-1.68a.62.62 0 0 1 .63-.61l10.379.182a.62.62 0 0 1 .609.63l-.03 1.68ZM193.15 404.52l.57-5.16q.06-.5-.26-.89-1.83-2.24-2.75-2.95-17.83-13.66-37.88-25.57a1.86 1.83 6.2 0 1-.82-1q-.73-2.11 1.16-2.26c1.97-.16 6.59 3.06 8.73 4.44q18.78 12.11 34.62 24.48a.72.71 51.5 0 0 .75.09q9.94-4.77 20.44-8.14.69-.23.57.49l-.35 2.1a.98.98 0 0 1-.62.76q-6.49 2.48-12.86 5.22c-5.68 2.45-9.27 3.41-9.02 9.82q.02.49.38.81c8.46 7.56 10.72 20.19 2.79 29.04a.79.79 0 0 0-.2.47l-.6 8.61a.54.54 0 0 1-.75.46q-.78-.34-.57-1.34.39-1.83-.3-4.18-.15-.52-.66-.33c-10.52 3.9-21.15 4.69-28.56-4.34-7-8.55-6.38-20.53 2.3-27.7q10.1-8.34 23.43-2.66.41.17.46-.27Z"/><path fill="#276799" d="M273 413.14v-40.43a1.09 1.09 0 0 1 1.46-1.02l57.4 20.8a1.09 1.09 0 0 1 .72 1.02l.36 41.21a1.09 1.09 0 0 1-1.48 1.03l-57.75-21.59a1.09 1.09 0 0 1-.71-1.02Z"/><path fill="#0e79a6" d="M542.56 378.835a.9.9 0 0 1-.885.914l-1.38.021a.9.9 0 0 1-.914-.885l-.081-5.16a.9.9 0 0 1 .885-.914l1.38-.021a.9.9 0 0 1 .914.885l.081 5.16Z"/><path fill="#fff" d="M278.57 380.21q-.03-.11-.1-.26a.66.65 88.1 0 1 .82-.88L326.04 396a1.44 1.44 0 0 1 .96 1.36l.27 29.88q.01.81-.75.54l-47.27-16.77a.61.61 0 0 1-.41-.56q-.55-15.1-.27-30.21v-.03Z"/><path fill="#0e79a6" d="M542.474 392.418a1.1 1.1 0 0 1-1.128 1.071l-.78-.02a1.1 1.1 0 0 1-1.07-1.129l.13-4.978a1.1 1.1 0 0 1 1.128-1.071l.78.02a1.1 1.1 0 0 1 1.07 1.129l-.13 4.978Z"/><path fill="#276799" d="M286.25 406.17v-17.6a.34.34 0 0 1 .46-.32l32.7 11.97a.34.34 0 0 1 .23.31l.45 17.4a.34.34 0 0 1-.46.32l-33.15-11.76a.34.34 0 0 1-.23-.32Z"/><path fill="#0e79a6" d="M542.313 407.729a1.14 1.14 0 0 1-1.163 1.116l-.56-.012a1.14 1.14 0 0 1-1.116-1.163l.133-6.359a1.14 1.14 0 0 1 1.163-1.116l.56.012a1.14 1.14 0 0 1 1.116 1.163l-.133 6.359Z"/><path fill="#fff" d="M198.272 428.192a16.38 15.73 20 0 1-20.772 9.18 16.38 15.73 20 0 1-10.012-20.384 16.38 15.73 20 0 1 20.772-9.18 16.38 15.73 20 0 1 10.012 20.384Z"/><path fill="#ffca6f" d="M94.57 433.95c-.01 1.61.47 3.51-.39 5.39q-.49 1.05-.48-.11l.16-25.16a1.5 1.49-.6 0 1 1.46-1.48q18.66-.52 36.93-.3c4.68.05 8.5.32 8.5 6.11q0 12.96.01 25.91c0 3.17-1.07 5.69-4.52 5.69q-11.62 0-22.71-.58a1.7 1.69-4.2 0 1-1.57-1.35q-.15-.75.77-.68 11.25.83 22.34-1.16.43-.08.43-.52v-26.97a1.57 1.57 0 0 0-1.58-1.57l-38.14.35q-.99.01-1 .99-.12 7.93-.21 15.44Z"/><path fill="#0e79a6" d="M541.17 419.31q.01-.1.01-.2 1.84 5.19 1.54 9.63-.05.6-.65.55l-2.01-.15q-.68-.06-.76-.74-.47-4.53 1.87-9.09Z"/><path fill="#ffca6f" d="M112.89 423.67a.45.45 0 0 1-.49.41l-.15-.01a1.92 1.54 5 0 1-1.77-1.7l.03-.42a1.92 1.54 5 0 1 2.05-1.37l.15.02a.45.45 0 0 1 .41.48l-.23 2.59Z"/><path fill="#ffa885" d="M125.85 422.19a.68.68 0 0 1 1.13.15l.48 1.04a.97.96 4.8 0 1-1.43 1.2q-1.39-.95-.18-2.39Z"/><path fill="#0e79a6" d="M67.75 436.49q-.23.47 0 1.19.06-.44-.42.11-.13.15-.18.37c-2.91 12.48-20.11 16.73-23.69 2.3-1.53-6.17 2.74-13.46 9.35-14.23 6.78-.8 12.38 3.76 14.48 10.11q.04.14.19.16.11.01.27-.01Z"/><path fill="#00eefe" d="M63.09 437.73a8.15 8.15 0 0 1-8.15 8.15 8.15 8.15 0 0 1-8.15-8.15 8.15 8.15 0 0 1 8.15-8.15 8.15 8.15 0 0 1 8.15 8.15Z"/><path fill="#ffa885" d="M111.613 432.33a1.3.83 90.3 0 1-.823-1.304 1.3.83 90.3 0 1 .837-1.296 1.3.83 90.3 0 1 .823 1.304 1.3.83 90.3 0 1-.837 1.296Z"/><path fill="#0e79a6" d="M127.704 431.89a.85.85 0 0 1-.837.863l-.88.014a.85.85 0 0 1-.863-.837l-.008-.5a.85.85 0 0 1 .837-.863l.88-.014a.85.85 0 0 1 .863.837l.008.5Z"/><path fill="#276799" d="M67.75 437.68q-.23-.72 0-1.19.39-1.37 1.81-1.44 5.37-.27 12.95.28.46.04.66.46.43.93-.15 1.62-.4.47-1.32.51-7.05.35-13.95-.24Z"/><path fill="#0e79a6" d="M542.424 441.316a.98.98 0 0 1-.99.97l-1.2-.012a.98.98 0 0 1-.97-.99l.052-4.92a.98.98 0 0 1 .99-.97l1.2.012a.98.98 0 0 1 .97.99l-.052 4.92Zm-430.706 1.464a1.84.87 90.7 0 1-.848-1.85 1.84.87 90.7 0 1 .892-1.83 1.84.87 90.7 0 1 .848 1.85 1.84.87 90.7 0 1-.892 1.83Zm14.632-.402a1.69 1.02 96.8 0 1-.813-1.799 1.69 1.02 96.8 0 1 1.213-1.557 1.69 1.02 96.8 0 1 .813 1.799 1.69 1.02 96.8 0 1-1.213 1.557Zm416.333 11.437a.91.91 0 0 1-.924.895l-1.36-.021a.91.91 0 0 1-.895-.924l.073-4.64a.91.91 0 0 1 .924-.895l1.36.021a.91.91 0 0 1 .895.924l-.073 4.64Zm-344.02.185a1 1 0 0 1-1.02.98l-.98-.021a1 1 0 0 1-.98-1.02l.094-4.46a1 1 0 0 1 1.02-.979l.98.021a1 1 0 0 1 .98 1.02l-.094 4.46Zm344.2 11.71a1.26 1.26 0 0 1-1.237 1.283l-.78.013a1.26 1.26 0 0 1-1.282-1.237l-.067-3.86a1.26 1.26 0 0 1 1.237-1.282l.78-.013a1.26 1.26 0 0 1 1.282 1.238l.067 3.859Zm-344.164 1.302a1 1 0 0 1-1.014.986l-1.12-.016a1 1 0 0 1-.986-1.014l.062-4.46a1 1 0 0 1 1.014-.986l1.12.016a1 1 0 0 1 .986 1.014l-.062 4.46Z"/><path fill="#276799" d="M541.274 478.85a3.02 1.65 88.6 0 1-1.723-2.98 3.02 1.65 88.6 0 1 1.575-3.06 3.02 1.65 88.6 0 1 1.724 2.98 3.02 1.65 88.6 0 1-1.576 3.06Z"/><path fill="#ffa885" d="m48.74 499.06-9.84-24.42a.72.72 0 0 1 .66-.99l20.17-.21a.72.72 0 0 1 .67 1l-10.33 24.62a.72.72 0 0 1-1.33 0Z"/><path fill="#14d7e2" d="M256.52 533.53q1.1-.3-.54.81c-2.69-6.32-4.12-13.39-7.44-18.94-10.32-17.21-26.45-25.79-46.27-28.72q-2.54-.37-4.24-1.15-.45-.2-.92-.09c-15.53 3.61-27.16 8.27-38.43 19.73-2.29 2.33-8.31 11.46-8.93 16.72q-.54 4.48-1.77 8.79-.54 1.88-.78 3.83-.97 7.87 1.5 18.91c.23 1.05.24 2.68 1.02 3.74q.3.4.35.9c.25 2.45.09 4.54 1.2 6.75q1.49 2.93 3.74 5.36a.95.95 0 0 1 .22.88c-.95 3.42 6.44 7.79 9.02 8.48a1.83 1.82 76.4 0 1 .91.56q6.01 6.89 14.65 10.17a.72.72 0 0 1 .45.78q-.2 1.14.6 1.72.46.32 1.02.37l2.04.15q.46.04.46.5l-.01.56q0 .66.65.7l9.17.61q.05 0 .06.05.02.12-.06.23-.12.19.09.22 8.65 1.52 13.99.11c29.1-7.68 44.55-29.68 48.14-58.27q.55 1.85.39 4.02c-2.39 32.9-35.07 64.28-69.38 55.7-31.91-7.98-53.2-41.78-41.85-73.97 7.75-21.99 27.2-35.29 49.59-39.07q.59-.1.59-.69v-8.86q0-.62.62-.62H198q.75 0 .75.75v8.96q0 .48.48.51 17.46 1.07 31.28 9.76 21.62 13.6 26.01 39.05Z"/><path fill="#ffca6f" d="M479.56 538.72q.02-1.73.51-2.64 2.68-24.46 21.24-40.25c47.42-40.36 111.38 6.39 94.67 63.66-5.61 19.23-22.44 34.39-41.28 40.11-26.45 8.03-54.52-5.95-67.36-29.19q-7.17-12.98-7.31-29.67-.01-.57-.47-2.02Z"/><path fill="none" stroke="#93b3cc" stroke-width="2" d="m518.43 518.63 20.66 18.57q.39.36.8.01l21.54-18.43m2.64 2.69-20.73 18.28a.37.37 0 0 0-.01.55l20.35 19m-3.6 2.38-19.67-18.42q-.46-.43-.94-.02L517.9 562.2m-3.42-2.41 20.8-18.23a1.66 1.66 0 0 0 0-2.5l-21.06-18.41" vector-effect="non-scaling-stroke"/><path fill="#8deefc" d="M282.444 483.955a1.14.76 106.1 0 1-.414-1.306 1.14.76 106.1 0 1 1.046-.884 1.14.76 106.1 0 1 .414 1.306 1.14.76 106.1 0 1-1.046.884Z"/><path fill="#00eefe" d="m255.98 534.34.49 3.21q.1.26-.06.44c-3.59 28.59-19.04 50.59-48.14 58.27q-5.34 1.41-13.99-.11-.21-.03-.09-.22.08-.11.06-.23-.01-.05-.06-.05l-9.17-.61q-.65-.04-.65-.7l.01-.56q0-.46-.46-.5l-2.04-.15q-.56-.05-1.02-.37-.8-.58-.6-1.72a.72.72 0 0 0-.45-.78q-8.64-3.28-14.65-10.17a1.83 1.82 76.4 0 0-.91-.56c-2.58-.69-9.97-5.06-9.02-8.48a.95.95 0 0 0-.22-.88q-2.25-2.43-3.74-5.36c-1.11-2.21-.95-4.3-1.2-6.75q-.05-.5-.35-.9c-.78-1.06-.79-2.69-1.02-3.74q-2.47-11.04-1.5-18.91.24-1.95.78-3.83 1.23-4.31 1.77-8.79c.62-5.26 6.64-14.39 8.93-16.72 11.27-11.46 22.9-16.12 38.43-19.73q.47-.11.92.09 1.7.78 4.24 1.15c19.82 2.93 35.95 11.51 46.27 28.72 3.32 5.55 4.75 12.62 7.44 18.94Z"/><g fill="none" stroke-width="2"><path stroke="#8aebf1" d="m222.57 515.4-20.84 15.94m19.71 29.08-5.11.35q-.52.03-.96-.25l-14.48-9.31a1.19 1.18 51.4 0 0-1.01-.12c-6.13 2.07-11.86 7-16.46 9.37a.31.23-53 0 1-.14.04l-7.36.23" vector-effect="non-scaling-stroke"/><path stroke="#78ebf1" d="M221.35 560.91q-2.95-.08-4.85 2.64-.29.42-.25.92.22 2.89 2.4 5.22m-37.06.06c4.73-4.22.64-11.61-5.59-7.21" vector-effect="non-scaling-stroke"/></g><path fill="#0e79a6" d="M284.54 492.262a1.02 1.02 0 0 1-.995 1.044l-1.04.026a1.02 1.02 0 0 1-1.044-.995l-.12-4.939a1.02 1.02 0 0 1 .994-1.044l1.04-.026a1.02 1.02 0 0 1 1.044.995l.12 4.939Z"/><path fill="#8deefc" d="M282.22 497.22a.17.16-16.8 0 1 .08-.14l.51-.24a.47.46 64.6 0 1 .61.22l.27.57a.41.4-18.4 0 1-.29.57q-1.12.21-1.18-.98Z"/><path fill="#0e79a6" d="M284.47 506.585a1.04 1.04 0 0 1-1.037 1.044l-.72.002a1.04 1.04 0 0 1-1.044-1.036l-.018-5.22a1.04 1.04 0 0 1 1.036-1.044l.72-.002a1.04 1.04 0 0 1 1.044 1.036l.018 5.22Z"/><path fill="#ffb94d" d="M324.346 516.722a10.19 9.68-23.9 0 1-5.394 12.978 10.19 9.68-23.9 0 1-13.238-4.722A10.19 9.68-23.9 0 1 311.108 512a10.19 9.68-23.9 0 1 13.238 4.722Z"/><path fill="#14d7e2" d="M443.38 521.186a9.55 9.19 5.2 0 1-10.343 8.286 9.55 9.19 5.2 0 1-8.678-10.017 9.55 9.19 5.2 0 1 10.344-8.287 9.55 9.19 5.2 0 1 8.678 10.018Z"/><path fill="#00eefe" d="M431.9 526.19c-10.18-2.45-3.14-16.5 5.58-11.89 2 1.05 2.42 2.81 3.29 4.8 2.57 5.81-4.79 8.07-8.87 7.09Z"/><path fill="#0e79a6" d="M284.827 519.576a1.25 1.25 0 0 1-1.15 1.342l-.58.044a1.25 1.25 0 0 1-1.341-1.15l-.323-4.188a1.25 1.25 0 0 1 1.15-1.342l.58-.044a1.25 1.25 0 0 1 1.341 1.15l.323 4.188Z"/><path fill="#14d7e2" d="m222.57 515.4-20.84 15.94q8.35-9.79 19.47-16.43.41-.24.84-.04.41.18.53.53Z"/><path fill="#fff" d="m201.73 531.34 20.84-15.94q1.49 1.76 1.51 3.11.18 19.97.44 40.01.02 1.62-3.08 1.9l-5.11.35q-.52.03-.96-.25l-14.48-9.31a1.19 1.18 51.4 0 0-1.01-.12c-6.13 2.07-11.86 7-16.46 9.37a.31.23-53 0 1-.14.04l-7.36.23q-.63-22.66.33-44.33a1.07 1.07 0 0 1 1.69-.83q10.7 7.53 20.45 16.58 2.1 1.95 3.34-.81Z"/><path fill="#ffca6f" d="M319.56 520.61a4.53 4.53 0 0 1-4.53 4.53 4.53 4.53 0 0 1-4.53-4.53 4.53 4.53 0 0 1 4.53-4.53 4.53 4.53 0 0 1 4.53 4.53Z"/><path fill="#276799" d="m518.43 518.63 20.66 18.57q.39.36.8.01l21.54-18.43q.39-1.65 3.27.3 1.21.82-.63 2.39l-20.73 18.28a.37.37 0 0 0-.01.55l20.35 19q.77.62.94 1.21a2.07 1.76-84.4 0 1-2.6 2.51l-1.94-1.34-19.67-18.42q-.46-.43-.94-.02L517.9 562.2c-2.35 1.33-3.99-.51-3.42-2.41l20.8-18.23a1.66 1.66 0 0 0 0-2.5l-21.06-18.41q-1.01-1.91.45-3.1.39-.32.89-.22 1.62.3 2.87 1.3Z"/><path fill="#fff" d="m561.43 518.78-21.54 18.43q-.41.35-.8-.01l-20.66-18.57q17.68 1.32 35.31.6 3.57-.15 7.69-.45Z"/><path fill="#8deefc" d="M421.78 551.85q-.46 2.11.57 3.52 1.88 5.86 2.44 11.81c2.1 22.45-9.32 40.38-28.61 50.57-23.91 12.63-48.53 4.74-64.75-15.66-10.74-13.51-12.66-31.13-8.6-47.48q1.32-.61 1.33-2.74 11.6-24.62 36.76-31.25c24.88-6.55 50.91 6.66 59.94 30.68q.13.33.35.42.21.08.57.13Z"/><path fill="#fff" d="m514.22 520.65 21.06 18.41a1.66 1.66 0 0 1 0 2.5l-20.8 18.23-.26-39.14Zm49.85.82q-1.28 18.88-.39 37.83l-20.35-19a.37.37 0 0 1 .01-.55l20.73-18.28Z"/><path fill="#0e79a6" d="m256.47 537.55-.49-3.21q1.64-1.11.54-.81 13.07 5.03 25.26 8.08.52.13.52-.41l-.16-13.53q0-.44.43-.43l1.63.03q.47.01.47.49l.12 13.82a.76.75-81 0 0 .52.72q4.58 1.52 9.21 2.55c1.65.37 2.57 1.38 1.91 3.03q-.21.5-.73.39-19.9-4.19-39.23-10.72Zm223.6-1.47q-.49.91-.51 2.64l-25.17 7.73q-.77.23-.89-.56l-.32-1.94q-.1-.63.5-.82 12.35-3.86 24.82-7.39.4-.11 1.57.34Z"/><path fill="#276799" d="m79.71 547.64.06.7q-.43-.32-.49.2c-1.98 16.69-22.83 17.03-25.63.46q-.07-.45-.52-.38l-5.35.75q-.77.11-.77-.67v-2.4q0-.79.78-.69l5.82.77q.37.05.51-.31c4.99-13.19 21.04-11.09 25.59 1.57Z"/><path fill="none" stroke="#ffb97a" stroke-width="2" d="m73.58 544.34-7.78-2.16a1.66 1.66 0 0 0-.84 0q-4.1 1.17-5.43 5.31a.75.74-80.5 0 1-.72.52l-1.29-.04" vector-effect="non-scaling-stroke"/><path fill="#14d7e2" d="M704.922 549.134a12.31 11.75-4.5 0 1-11.35 12.68 12.31 11.75-4.5 0 1-13.194-10.748 12.31 11.75-4.5 0 1 11.35-12.68 12.31 11.75-4.5 0 1 13.194 10.748Z"/><path fill="#ffca6f" d="m73.58 544.34-7.78-2.16a1.66 1.66 0 0 0-.84 0q-4.1 1.17-5.43 5.31a.75.74-80.5 0 1-.72.52l-1.29-.04c1.6-7.73 11.16-9.84 16.06-3.63Z"/><path fill="#00eefe" d="M701.877 547.792a9.44 8.23-7.6 0 1-8.268 9.406 9.44 8.23-7.6 0 1-10.446-6.91 9.44 8.23-7.6 0 1 8.269-9.406 9.44 8.23-7.6 0 1 10.445 6.91Z"/><path fill="#ffa885" d="M73.58 544.34q3.88 5.7-1.5 11c-5.56 5.49-15.23.74-14.56-7.37l1.29.04a.75.74-80.5 0 0 .72-.52q1.33-4.14 5.43-5.31a1.66 1.66 0 0 1 .84 0l7.78 2.16Z"/><path fill="#fff" d="M560.08 561.68q-.02.54-.25.89-.3.46-.74.13-1.51-1.15-2.66-1.18-19.54-.51-38.53.68l21.57-18.96q.48-.41.94.02l19.67 18.42Z"/><path fill="#0e79a6" d="M422.35 555.37q-1.03-1.41-.57-3.52l29.04-8.08a.54.53-7.9 0 1 .68.51v2.18a.69.68 82.2 0 1-.5.66l-28.65 8.25Zm-288.16-7.87a1.01 1.01 0 0 1-.978 1.041l-2.42.076a1.01 1.01 0 0 1-1.04-.978l-.041-1.299a1.01 1.01 0 0 1 .977-1.041l2.42-.076a1.01 1.01 0 0 1 1.04.978l.041 1.299Zm-54.42.84-.06-.7c1.92-1.75 8.8-4.25 8.73.35q0 .47-.47.46l-8.2-.11Zm20.76-.914a1.04 1.04 0 0 1-1.015 1.065l-2.36.057a1.04 1.04 0 0 1-1.065-1.014l-.02-.8a1.04 1.04 0 0 1 1.015-1.065l2.36-.057a1.04 1.04 0 0 1 1.065 1.014l.02.8Zm6.44-.956a.65.65 0 0 1 .62-.68l.29-.01a3.32 1.24-2.3 0 1 3.37 1.1l.02.52a3.32 1.24-2.3 0 1-3.27 1.38l-.29.01a.65.65 0 0 1-.67-.63l-.07-1.69Z"/><path fill="#276799" d="M122.673 547.447a.95.95 0 0 1-.916.983l-2.259.079a.95.95 0 0 1-.982-.917l-.029-.82a.95.95 0 0 1 .916-.982l2.259-.079a.95.95 0 0 1 .982.917l.029.82Z"/><path fill="#0e79a6" d="M611.498 547.6a.85.85 0 0 1-.82.878l-3.478.122a.85.85 0 0 1-.879-.82l-.039-1.12a.85.85 0 0 1 .82-.878l3.478-.122a.85.85 0 0 1 .879.82l.039 1.12Zm12.518-.095a.93.93 0 0 1-.892.966l-2.878.116a.93.93 0 0 1-.966-.892l-.036-.88a.93.93 0 0 1 .892-.966l2.878-.116a.93.93 0 0 1 .966.892l.036.88Zm38.186.368a.98.98 0 0 1-.96 1l-2.479.053a.98.98 0 0 1-1-.96l-.025-1.18a.98.98 0 0 1 .96-1l2.479-.052a.98.98 0 0 1 1 .96l.025 1.18Zm12.963.347a.82.82 0 0 1-.845.794l-3.478-.11a.82.82 0 0 1-.794-.845l.047-1.479a.82.82 0 0 1 .845-.794l3.478.11a.82.82 0 0 1 .794.845l-.047 1.479Zm-38.39-.567a.98.98 0 0 1-.964.995l-2.72.043a.98.98 0 0 1-.995-.964l-.011-.74a.98.98 0 0 1 .964-.995l2.72-.043a.98.98 0 0 1 .995.964l.011.74Zm12.718.337a.81.81 0 0 1-.82.8l-3.36-.04a.81.81 0 0 1-.8-.82l.014-1.14a.81.81 0 0 1 .82-.8l3.36.04a.81.81 0 0 1 .8.82l-.014 1.14Zm-325.333 3.88q-.01 2.13-1.33 2.74l-23.87-5.49q-.57-.13-.5-.72l.19-1.61q.08-.7.77-.54l24.74 5.62Z"/><path fill="#14d7e2" d="M221.44 560.42q.21.72-.09.49-2.95-.08-4.85 2.64-.29.42-.25.92.22 2.89 2.4 5.22-4.58-1.11-3.06-7 .13-.51-.33-.77l-14.64-8.44q-.52-.3-1.12-.23c-4.39.51-10.14 6.43-13.58 9.15a2.05 2.05 0 0 0-.76 1.87q.69 5.33-3.57 5.48c4.73-4.22.64-11.61-5.59-7.21l-.08-1.81 7.36-.23a.31.23-53 0 0 .14-.04c4.6-2.37 10.33-7.3 16.46-9.37a1.19 1.18 51.4 0 1 1.01.12l14.48 9.31q.44.28.96.25l5.11-.35Z"/><path fill="#dbffff" d="M221.35 560.91c5.84 2.66 4.63 10.87-2.7 8.78q-2.18-2.33-2.4-5.22-.04-.5.25-.92 1.9-2.72 4.85-2.64Zm-39.76 8.84c-5.92 2.2-7.53-2.88-5.59-7.21 6.23-4.4 10.32 2.99 5.59 7.21Z"/><path fill="#fff" d="m374.06 571.46 9.1-8.49a1.2 1.19 28.3 0 1 1.04-.31l7.59 1.34a.98.97-60.5 0 1 .47 1.7l-13.62 11.72a1.35 1.33 70.6 0 0-.47 1l-.24 12.14a.93.92-89.4 0 1-.92.91l-7.2.04q-.51.01-.52-.51c-.03-4 .8-12.15-2.8-14.77q-6.74-4.91-12.92-10.51a.38.38 0 0 1 .11-.63l7.13-2.98a.6.59 53 0 1 .61.09l11.43 9.3a.92.92 0 0 0 1.21-.04Z"/><path fill="#8deefc" d="M309.36 596.462a12.59 11.78.1 0 1-12.61 11.758 12.59 11.78.1 0 1-12.57-11.802 12.59 11.78.1 0 1 12.61-11.758 12.59 11.78.1 0 1 12.57 11.802Z"/><path fill="#0e79a6" d="M381.59 655.12a11.38 11.38 0 0 1-11.38 11.38 11.38 11.38 0 0 1-11.38-11.38 11.38 11.38 0 0 1 11.38-11.38 11.38 11.38 0 0 1 11.38 11.38Z"/></svg>